<?xml version="1.0" standalone="no"?>
<!DOCTYPE svg PUBLIC "-//W3C//DTD SVG 20010904//EN"
 "http://www.w3.org/TR/2001/REC-SVG-20010904/DTD/svg10.dtd">
<svg version="1.0" xmlns="http://www.w3.org/2000/svg"
 width="400.000000pt" height="172.000000pt" viewBox="0 0 400.000000 172.000000"
 preserveAspectRatio="xMidYMid meet">
<metadata>
Created by potrace 1.15, written by Peter Selinger 2001-2017
</metadata>
<g transform="translate(0.000000,172.000000) scale(0.100000,-0.100000)"
fill="#000000" stroke="none">
<path d="M1375 1661 c-120 -22 -228 -57 -351 -115 -88 -42 -91 -45 -97 -82 -4
-22 -7 -57 -8 -79 l-1 -40 -18 40 c-11 22 -21 48 -24 59 -4 16 -9 15 -53 -15
-83 -59 -249 -227 -317 -322 -74 -104 -154 -260 -184 -357 -12 -38 -46 -106
-81 -160 -56 -86 -197 -349 -174 -325 5 6 44 62 86 125 204 307 465 596 757
836 77 64 230 181 255 196 6 4 -103 -107 -241 -245 -238 -240 -521 -544 -513
-551 10 -10 198 47 285 85 180 79 321 176 457 313 95 96 92 101 -52 93 l-96
-5 75 25 c41 13 103 27 138 30 l63 6 41 59 c22 33 38 62 35 64 -2 2 -39 -2
-82 -11 -43 -8 -80 -13 -82 -11 -6 5 136 63 174 71 28 5 35 15 66 88 29 69 44
112 82 235 6 16 -16 15 -140 -7z"/>
<path d="M1086 859 c-206 -51 -470 -334 -470 -504 0 -33 6 -62 18 -79 10 -15
16 -30 13 -32 -2 -2 -22 2 -45 10 -81 29 -154 38 -218 27 -75 -12 -164 -48
-164 -67 0 -15 36 -19 44 -5 3 5 35 17 71 26 76 21 174 16 245 -11 57 -22 246
-26 302 -6 20 7 75 41 121 76 71 53 83 59 79 39 -5 -26 12 -52 43 -63 32 -12
103 15 155 59 27 23 56 41 65 41 31 0 73 30 121 85 62 74 124 105 124 64 0
-16 -55 -92 -120 -166 -39 -45 -56 -71 -49 -78 10 -10 36 15 217 208 59 62
102 85 102 54 0 -18 -48 -92 -110 -172 -43 -53 -49 -66 -35 -71 11 -5 27 7 52
37 73 88 191 199 212 199 12 0 21 -4 21 -9 0 -11 -46 -78 -82 -120 -35 -40
-58 -89 -51 -108 6 -16 47 -17 76 -2 21 11 21 11 6 -7 -14 -16 -158 -200 -180
-229 -5 -6 0 -16 11 -22 16 -11 31 4 136 145 129 173 256 308 321 341 91 46
97 15 15 -78 -68 -76 -82 -100 -82 -136 0 -52 52 -46 130 17 44 35 51 38 45
19 -4 -14 -1 -31 10 -48 38 -58 137 -6 260 136 61 71 71 79 84 66 13 -13 12
-18 -7 -42 -59 -74 -84 -118 -86 -145 -2 -61 51 -62 127 -4 l44 33 9 -31 c8
-28 14 -31 51 -34 51 -4 96 16 148 63 21 19 46 35 57 35 11 0 28 5 39 10 17
10 19 7 19 -29 0 -96 86 -93 193 7 l27 26 0 -36 c0 -43 21 -68 56 -68 31 0 57
13 109 55 l41 33 -4 -33 c-3 -26 2 -36 23 -54 69 -54 165 -12 299 131 85 91
95 98 104 81 9 -16 4 -28 -29 -68 -69 -83 -85 -130 -54 -155 29 -24 86 4 155
75 34 36 60 69 56 72 -4 4 -27 -16 -51 -44 -44 -50 -101 -93 -124 -93 -25 0
-8 50 39 111 53 68 59 89 35 109 -8 7 -15 21 -15 31 0 11 -2 19 -5 19 -2 0
-24 -21 -47 -47 -80 -90 -174 -181 -205 -196 -50 -27 -107 -32 -126 -12 -20
19 -23 64 -4 69 113 30 161 51 197 85 66 62 49 134 -27 112 -60 -17 -101 -46
-198 -141 -103 -100 -130 -120 -163 -120 -27 0 -34 24 -21 74 8 34 21 51 62
82 84 63 259 245 296 307 52 89 26 113 -63 57 -99 -63 -235 -217 -292 -334
-28 -55 -113 -149 -156 -172 -61 -32 -85 -11 -67 60 8 34 21 51 62 82 143 108
339 338 323 379 -29 75 -289 -161 -383 -349 -31 -63 -61 -96 -85 -96 -17 0
-16 4 7 50 28 56 32 102 10 120 -13 11 -21 10 -43 -7 -15 -11 -33 -31 -39 -44
-15 -28 -17 -98 -3 -119 19 -30 -85 -104 -138 -98 -68 8 -12 122 107 221 18
15 31 30 28 34 -14 14 -102 -54 -183 -142 -90 -99 -138 -135 -156 -117 -15 15
-2 43 47 107 48 61 54 85 30 105 -8 7 -15 21 -15 32 0 15 -35 -16 -122 -105
-124 -126 -163 -151 -194 -126 -8 6 -14 17 -14 24 0 22 63 137 109 198 l42 57
64 0 c83 0 95 18 14 22 l-62 3 48 58 c78 96 37 84 -54 -15 -35 -39 -50 -48
-77 -48 -18 0 -36 -4 -39 -10 -4 -6 6 -10 24 -10 l30 0 -60 -89 c-90 -135
-223 -246 -211 -176 2 11 30 52 63 93 59 73 76 109 65 137 -12 33 -96 7 -165
-50 -17 -15 -31 -24 -31 -20 0 5 57 86 94 134 8 10 8 13 0 10 -6 -2 -52 -51
-101 -109 -96 -112 -195 -210 -212 -210 -22 0 -10 34 28 84 61 81 73 103 69
133 -2 23 -9 29 -32 31 -17 2 -40 -4 -55 -15 -48 -35 -55 -38 -48 -19 11 28
-10 56 -41 56 -15 0 -43 -11 -62 -24 -34 -23 -34 -23 -50 -3 -27 33 -66 14
-154 -74 -43 -43 -86 -79 -96 -79 -16 0 -15 5 6 47 44 86 25 155 -33 117 -44
-28 -70 -133 -41 -162 14 -14 -1 -33 -56 -74 -43 -31 -103 -38 -112 -13 -13
33 20 91 93 164 40 41 72 76 69 78 -12 12 -81 -40 -165 -124 -110 -110 -156
-143 -233 -166 -137 -42 -205 -30 -228 39 -36 108 102 329 286 460 108 77 229
108 268 68 71 -71 -118 -303 -247 -304 -15 0 -41 7 -57 15 -36 19 -40 2 -5
-21 34 -22 107 -20 160 6 91 44 179 155 191 241 5 38 3 49 -17 72 -28 31 -90
42 -153 26z m2269 -102 c-29 -45 -270 -287 -286 -287 -27 0 85 163 178 258 73
74 126 109 131 86 2 -8 -8 -34 -23 -57z m220 0 c-29 -45 -270 -287 -286 -287
-27 0 85 163 178 258 73 74 126 109 131 86 2 -8 -8 -34 -23 -57z"/>
</g>
</svg>
